<svg width="16" height="17" viewBox="0 0 16 17" fill="none" xmlns="http://www.w3.org/2000/svg">
<g id="Delete">
<g id="Vector">
<path d="M3.48335 13.6189C3.51468 14.0388 3.70324 14.4314 4.01138 14.7183C4.31951 15.0052 4.72454 15.1653 5.14557 15.1667H10.8545C11.2755 15.1653 11.6805 15.0052 11.9887 14.7183C12.2968 14.4314 12.4854 14.0388 12.5167 13.6189L13.0411 6.27779H2.95891L3.48335 13.6189Z" fill="#E02424"/>
<path d="M14.1111 4.05557H10.7778V2.3889C10.7778 2.24156 10.7192 2.10025 10.6151 1.99606C10.5109 1.89188 10.3696 1.83334 10.2222 1.83334H5.77778C5.63044 1.83334 5.48913 1.89188 5.38494 1.99606C5.28076 2.10025 5.22222 2.24156 5.22222 2.3889V4.05557H1.88889C1.74155 4.05557 1.60024 4.1141 1.49605 4.21828C1.39187 4.32247 1.33334 4.46378 1.33334 4.61112C1.33334 4.75846 1.39187 4.89977 1.49605 5.00396C1.60024 5.10815 1.74155 5.16668 1.88889 5.16668H14.1111C14.2585 5.16668 14.3998 5.10815 14.504 5.00396C14.6081 4.89977 14.6667 4.75846 14.6667 4.61112C14.6667 4.46378 14.6081 4.32247 14.504 4.21828C14.3998 4.1141 14.2585 4.05557 14.1111 4.05557ZM6.33334 2.94445H9.66667V4.05557H6.33334V2.94445Z" fill="#E02424"/>
</g>
</g>
</svg>
