<svg width="16" height="17" viewBox="0 0 16 17" fill="none" xmlns="http://www.w3.org/2000/svg">
<path d="M13.5074 15.1667H1.91304C1.75929 15.1667 1.61184 15.1056 1.50312 14.9969C1.39441 14.8882 1.33333 14.7407 1.33333 14.587C1.33333 14.4332 1.39441 14.2858 1.50312 14.177C1.61184 14.0683 1.75929 14.0072 1.91304 14.0072H13.5074C13.6611 14.0072 13.8086 14.0683 13.9173 14.177C14.026 14.2858 14.0871 14.4332 14.0871 14.587C14.0871 14.7407 14.026 14.8882 13.9173 14.9969C13.8086 15.1056 13.6611 15.1667 13.5074 15.1667Z" fill="#6B7280"/>
<path d="M8.04991 4.15208L3.24233 8.95966C3.168 9.03403 3.1153 9.12721 3.08987 9.22923L1.91304 12.8478L5.53163 11.671C5.63365 11.6456 5.72683 11.5929 5.8012 11.5185L10.6088 6.71095L8.04991 4.15208Z" fill="#6B7280"/>
<path d="M12.7578 3.74222L11.0186 2.00308C10.9099 1.8944 10.7625 1.83334 10.6088 1.83334C10.4551 1.83334 10.3076 1.8944 10.1989 2.00308L8.86963 3.33236L11.4285 5.89123L12.7578 4.56194C12.8665 4.45323 12.9275 4.3058 12.9275 4.15208C12.9275 3.99836 12.8665 3.85094 12.7578 3.74222Z" fill="#6B7280"/>
</svg>
